<svg width="163" height="65" viewBox="0 0 163 65" fill="none" xmlns="http://www.w3.org/2000/svg">
<g clip-path="url(#clip0_66_11528)">
<path fill-rule="evenodd" clip-rule="evenodd" d="M14.4855 28.3234C13.706 31.3918 10.9648 33.7806 7.39375 33.7806C3.01802 33.7806 0 30.3854 0 26.4372C0 22.3635 3.14353 19.1191 7.26767 19.1191C10.7384 19.1191 13.6808 21.3073 14.4855 24.6772H11.1156C10.5373 23.2186 9.20422 22.187 7.39375 22.187C6.18621 22.1618 5.25603 22.5899 4.45138 23.3694C3.74703 24.1236 3.31948 25.2303 3.31948 26.4372C3.31948 28.9269 5.05487 30.6875 7.39375 30.6875C9.45582 30.6875 10.6124 29.4553 11.1156 28.3234H14.4855Z" fill="black"/>
<path fill-rule="evenodd" clip-rule="evenodd" d="M19.4896 26.4627C19.4896 28.8767 21.3253 30.6625 23.5891 30.6625C25.8523 30.6625 27.6628 28.8767 27.6628 26.4375C27.6628 23.9983 25.8523 22.2125 23.5891 22.2125C21.3253 22.2125 19.4896 23.9983 19.4896 26.4375V26.4627ZM16.1953 26.4123C16.1953 22.8916 18.7858 19.144 23.5891 19.144C28.3923 19.144 30.9823 22.8916 30.9823 26.4375C30.9823 30.0086 28.3923 33.7556 23.5891 33.7556C18.7858 33.7556 16.1953 30.0086 16.1953 26.4375V26.4123Z" fill="black"/>
<path fill-rule="evenodd" clip-rule="evenodd" d="M33.2324 19.5467H36.3261V21.2821C36.6276 20.6534 37.9606 19.1191 40.3494 19.1191C41.4813 19.1191 42.7387 19.4458 43.7445 20.5273C44.0465 20.8545 44.3984 21.4328 44.5744 21.7847C44.826 21.3572 45.128 20.9044 45.5807 20.4774C46.4353 19.6728 47.6428 19.1191 49.1014 19.1191C50.2579 19.1191 51.7165 19.4206 52.7728 20.5026C54.0302 21.8099 54.2818 22.9418 54.2818 25.7833V33.353H50.9875V25.9094C50.9875 25.0291 50.9119 24.0737 50.4339 23.3441C50.082 22.665 49.4281 22.2122 48.271 22.2122C47.1144 22.2122 46.3098 22.7154 45.8822 23.4697C45.4547 24.2244 45.4042 24.9535 45.4042 25.7833V33.353H42.11V25.7833C42.11 24.9787 42.0343 24.1992 41.6824 23.4949C41.2801 22.7659 40.601 22.2375 39.4192 22.2122C38.2116 22.2122 37.4574 22.7911 37.0551 23.4949C36.6528 24.2244 36.5267 25.0795 36.5267 25.8842V33.353H33.2324V19.5467Z" fill="black"/>
<path fill-rule="evenodd" clip-rule="evenodd" d="M56.9668 19.5467H60.0605V21.2821C60.3619 20.6534 61.695 19.1191 64.0837 19.1191C65.2156 19.1191 66.473 19.4458 67.4789 20.5273C67.7809 20.8545 68.1328 21.4328 68.3087 21.7847C68.5603 21.3572 68.8624 20.9044 69.3151 20.4774C70.1696 19.6728 71.3772 19.1191 72.8358 19.1191C73.9923 19.1191 75.4509 19.4206 76.5071 20.5026C77.7646 21.8099 78.0162 22.9418 78.0162 25.7833V33.353H74.7219V25.9094C74.7219 25.0291 74.6462 24.0737 74.1683 23.3441C73.8164 22.665 73.1624 22.2122 72.0053 22.2122C70.8488 22.2122 70.0441 22.7154 69.6166 23.4697C69.189 24.2244 69.1386 24.9535 69.1386 25.7833V33.353H65.8443V25.7833C65.8443 24.9787 65.7687 24.1992 65.4168 23.4949C65.0145 22.7659 64.3353 22.2375 63.1536 22.2122C61.946 22.2122 61.1918 22.7911 60.7895 23.4949C60.3871 24.2244 60.2611 25.0795 60.2611 25.8842V33.353H56.9668V19.5467Z" fill="black"/>
<path fill-rule="evenodd" clip-rule="evenodd" d="M83.6986 26.4627C83.6986 28.8767 85.5343 30.6625 87.7975 30.6625C90.0613 30.6625 91.8718 28.8767 91.8718 26.4375C91.8718 23.9983 90.0613 22.2125 87.7975 22.2125C85.5343 22.2125 83.6986 23.9983 83.6986 26.4375V26.4627ZM80.4043 26.4123C80.4043 22.8916 82.9948 19.144 87.7975 19.144C92.6013 19.144 95.1918 22.8916 95.1918 26.4375C95.1918 30.0086 92.6013 33.7556 87.7975 33.7556C82.9948 33.7556 80.4043 30.0086 80.4043 26.4375V26.4123Z" fill="black"/>
<path fill-rule="evenodd" clip-rule="evenodd" d="M97.5371 19.5466H100.631C100.631 20.1501 100.631 20.7284 100.606 21.3823C101.209 20.3008 102.442 19.0938 104.906 19.119C109.407 19.1443 110.263 22.5898 110.263 25.029V33.3529H106.968V25.8589C106.968 23.7968 106.289 22.2121 103.975 22.2121C101.637 22.2374 100.832 23.7968 100.832 25.7334V33.3529H97.5371V19.5466Z" fill="black"/>
<path fill-rule="evenodd" clip-rule="evenodd" d="M66.347 46.4436C66.347 48.1537 67.5792 50.6433 70.5468 50.6433C72.3825 50.6433 73.5895 49.6874 74.2182 48.43C74.5454 47.8265 74.6961 47.1731 74.7466 46.494C74.7718 45.8401 74.6463 45.1609 74.3689 44.5574C73.7906 43.2496 72.5086 42.1177 70.5216 42.1177C67.8554 42.1177 66.347 44.2806 66.347 46.4183V46.4436ZM78.0156 53.2837H74.7214V51.2973C73.841 52.9071 72.0054 53.7118 70.0688 53.7118C65.6426 53.7118 63.0527 50.2657 63.0527 46.3679C63.0527 42.0174 66.1957 39.0498 70.0688 39.0498C72.5836 39.0498 74.1179 40.3829 74.7214 41.489V39.4773H78.0156V53.2837Z" fill="black"/>
<path fill-rule="evenodd" clip-rule="evenodd" d="M92.2404 46.368C92.2404 44.381 90.8064 42.1178 88.0154 42.1178C86.8084 42.1178 85.7774 42.5957 85.0226 43.3752C84.293 44.13 83.8408 45.2114 83.8408 46.4184C83.8408 47.6002 84.293 48.6564 85.0478 49.4112C85.8026 50.1654 86.8588 50.6434 88.0406 50.6434C90.5554 50.6434 92.2404 48.6564 92.2404 46.3932V46.368ZM80.6973 39.4774H83.7904V41.4891C84.771 40.1061 86.3808 39.0493 88.6693 39.0493C93.4978 39.0493 95.5346 43.1488 95.5346 46.4941C95.5346 50.417 92.743 53.7113 88.6945 53.7113C86.0032 53.7113 84.5452 52.3284 83.9915 51.4475V53.2838V60.4915H80.6973V39.4774Z" fill="black"/>
<path fill-rule="evenodd" clip-rule="evenodd" d="M109.068 46.368C109.068 44.381 107.635 42.1178 104.843 42.1178C103.637 42.1178 102.606 42.5957 101.851 43.3752C101.121 44.13 100.669 45.2114 100.669 46.4184C100.669 47.6002 101.121 48.6564 101.876 49.4112C102.631 50.1654 103.687 50.6434 104.869 50.6434C107.384 50.6434 109.068 48.6564 109.068 46.3932V46.368ZM97.5254 39.4774H100.618V41.4891C101.6 40.1061 103.21 39.0493 105.497 39.0493C110.326 39.0493 112.363 43.1488 112.363 46.4941C112.363 50.417 109.571 53.7113 105.523 53.7113C102.832 53.7113 101.373 52.3284 100.82 51.4475V53.2838V60.4915H97.5254V39.4774Z" fill="black"/>
<path fill-rule="evenodd" clip-rule="evenodd" d="M161.442 0.705676C157.898 2.36934 126.733 16.9999 124.129 18.2674C119.264 20.7027 116.693 24.3618 116.693 28.849C116.712 32.7339 118.836 35.2846 119.846 36.2769C118.864 37.2564 116.791 39.6945 116.693 42.9237C116.545 47.7063 118.646 51.3861 122.787 53.5742L145.561 64.3715C145.7 64.4371 145.849 64.4701 145.997 64.4701C146.188 64.4701 146.378 64.4163 146.544 64.3093C146.842 64.1188 147.019 63.7932 147.019 63.4385V50.5181C147.019 47.5359 145.292 44.7802 142.619 43.5003L127.49 36.2568L158.292 21.7068C161.089 20.3844 162.897 17.5171 162.897 14.4027V1.84654C162.897 1.63417 162.897 0.98865 162.43 0.689987C162.28 0.593607 162.127 0.560547 161.988 0.560547C161.746 0.560547 161.54 0.658607 161.442 0.705676ZM122.87 33.4965C122.849 33.4797 120.791 31.7521 120.774 28.8378C120.774 27.289 121.238 25.9638 122.19 24.7865C123.049 23.7252 124.307 22.7749 125.923 21.9635C128.072 20.9184 149 11.0872 158.817 6.47723V14.4027C158.817 15.9286 157.931 17.3328 156.561 17.9794L123.187 33.7447L122.87 33.4965ZM124.608 49.8905C121.855 48.4174 120.672 46.3082 120.772 43.0504C120.838 40.8555 122.87 39.0523 122.937 38.994L123.219 38.7677L140.869 47.2177C142.127 47.8206 142.938 49.1155 142.938 50.5181V58.5815L124.608 49.8905Z" fill="url(#paint0_linear_66_11528)"/>
</g>
<defs>
<linearGradient id="paint0_linear_66_11528" x1="3850.19" y1="6391.52" x2="3850.19" y2="493.928" gradientUnits="userSpaceOnUse">
<stop stop-color="#429AE2"/>
<stop offset="0.51287" stop-color="#38DAF9"/>
<stop offset="1" stop-color="#9AE9FF"/>
</linearGradient>
<clipPath id="clip0_66_11528">
<rect width="163" height="65" fill="white"/>
</clipPath>
</defs>
</svg>
