<?xml version="1.0" encoding="UTF-8"?>
<svg width="163px" height="65px" viewBox="0 0 163 65" version="1.1" xmlns="http://www.w3.org/2000/svg" xmlns:xlink="http://www.w3.org/1999/xlink">
    <!-- Generator: sketchtool 53.2 (72643) - https://sketchapp.com -->
    <title>1B11985A-64C5-4617-B7AF-78B7E72D74C4</title>
    <desc>Created with sketchtool.</desc>
    <defs>
        <linearGradient x1="80.7913795%" y1="100%" x2="80.7913795%" y2="7.71977596%" id="linearGradient-1">
            <stop stop-color="#429AE2" offset="0%"></stop>
            <stop stop-color="#38DAF9" offset="51.2870303%"></stop>
            <stop stop-color="#9AE9FF" offset="100%"></stop>
        </linearGradient>
    </defs>
    <g id="Events-Clean-R2" stroke="none" stroke-width="1" fill="none" fill-rule="evenodd">
        <g id="404-page-not-found" transform="translate(-95.000000, -24.000000)">
            <g id="header">
                <g id="menu_black">
                    <g id="common-app-logo-new" transform="translate(95.000000, 24.000000)">
                        <g id="type" transform="translate(0.000000, 19.081983)" fill="#FFFFFF">
                            <path d="M14.4855302,9.24092672 C13.7060905,12.309375 10.9648836,14.698125 7.39380603,14.698125 C3.01807328,14.698125 5.60344828e-05,11.3029957 5.60344828e-05,7.35480603 C5.60344828e-05,3.28109914 3.14359052,0.0367025862 7.26772845,0.0367025862 C10.7385043,0.0367025862 13.680875,2.22484914 14.4855302,5.59476293 L11.1156164,5.59476293 C10.5373405,4.13618534 9.20428017,3.10459052 7.39380603,3.10459052 C6.18626293,3.079375 5.25609052,3.50747845 4.45143534,4.2869181 C3.7470819,5.04114224 3.31953879,6.14782328 3.31953879,7.35480603 C3.31953879,9.8444181 5.05492672,11.6050216 7.39380603,11.6050216 C9.455875,11.6050216 10.6124267,10.3728233 11.1156164,9.24092672 L14.4855302,9.24092672 Z" id="Fill-1"></path>
                            <path d="M19.4900819,7.38013362 C19.4900819,9.79409914 21.3257716,11.5799181 23.5895647,11.5799181 C25.8527974,11.5799181 27.6632716,9.79409914 27.6632716,7.3549181 C27.6632716,4.91573707 25.8527974,3.1299181 23.5895647,3.1299181 C21.3257716,3.1299181 19.4900819,4.91573707 19.4900819,7.3549181 L19.4900819,7.38013362 Z M16.1958147,7.32970259 C16.1958147,3.80905603 18.7862888,0.0614698276 23.5895647,0.0614698276 C28.3928405,0.0614698276 30.9827543,3.80905603 30.9827543,7.3549181 C30.9827543,10.9259957 28.3928405,14.6730216 23.5895647,14.6730216 C18.7862888,14.6730216 16.1958147,10.9259957 16.1958147,7.3549181 L16.1958147,7.32970259 Z" id="Fill-3"></path>
                            <path d="M33.2327629,0.464189655 L36.3264267,0.464189655 L36.3264267,2.19957759 C36.6278922,1.57087069 37.9609526,0.0366465517 40.3497026,0.0366465517 C41.4815991,0.0366465517 42.7390129,0.363327586 43.7448319,1.4447931 C44.0468578,1.77203448 44.3987543,2.35031034 44.5747026,2.7022069 C44.8262974,2.27466379 45.1283233,1.82190517 45.5810819,1.39492241 C46.4356078,0.590267241 47.6431509,0.0366465517 49.1017284,0.0366465517 C50.2582802,0.0366465517 51.7168578,0.338112069 52.7731078,1.42013793 C54.0305216,2.72742241 54.2821164,3.85931897 54.2821164,6.70082759 L54.2821164,14.2705259 L50.9878491,14.2705259 L50.9878491,6.82690517 C50.9878491,5.94660345 50.9122026,4.99121552 50.4342284,4.26164655 C50.0823319,3.58250862 49.4284095,3.12975 48.2712974,3.12975 C47.1147457,3.12975 46.3100905,3.63293966 45.8825474,4.38716379 C45.4550043,5.14194828 45.4045733,5.8709569 45.4045733,6.70082759 L45.4045733,14.2705259 L42.110306,14.2705259 L42.110306,6.70082759 C42.110306,5.89617241 42.0346595,5.11673276 41.6827629,4.41237931 C41.2804353,3.68337069 40.6012974,3.15496552 39.4195302,3.12975 C38.2119871,3.12975 37.4577629,3.70858621 37.0554353,4.41237931 C36.6531078,5.14194828 36.5270302,5.99703448 36.5270302,6.80168966 L36.5270302,14.2705259 L33.2327629,14.2705259 L33.2327629,0.464189655 Z" id="Fill-5"></path>
                            <path d="M56.9658879,0.464189655 L60.0595517,0.464189655 L60.0595517,2.19957759 C60.3610172,1.57087069 61.6940776,0.0366465517 64.0828276,0.0366465517 C65.2147241,0.0366465517 66.4721379,0.363327586 67.4779569,1.4447931 C67.7799828,1.77203448 68.1318793,2.35031034 68.3078276,2.7022069 C68.5594224,2.27466379 68.8614483,1.82190517 69.3142069,1.39492241 C70.1687328,0.590267241 71.3762759,0.0366465517 72.8348534,0.0366465517 C73.9914052,0.0366465517 75.4499828,0.338112069 76.5062328,1.42013793 C77.7636466,2.72742241 78.0152414,3.85931897 78.0152414,6.70082759 L78.0152414,14.2705259 L74.7209741,14.2705259 L74.7209741,6.82690517 C74.7209741,5.94660345 74.6453276,4.99121552 74.1673534,4.26164655 C73.8154569,3.58250862 73.1615345,3.12975 72.0044224,3.12975 C70.8478707,3.12975 70.0432155,3.63293966 69.6156724,4.38716379 C69.1881293,5.14194828 69.1376983,5.8709569 69.1376983,6.70082759 L69.1376983,14.2705259 L65.843431,14.2705259 L65.843431,6.70082759 C65.843431,5.89617241 65.7677845,5.11673276 65.4158879,4.41237931 C65.0135603,3.68337069 64.3344224,3.15496552 63.1526552,3.12975 C61.9451121,3.12975 61.1908879,3.70858621 60.7885603,4.41237931 C60.3862328,5.14194828 60.2601552,5.99703448 60.2601552,6.80168966 L60.2601552,14.2705259 L56.9658879,14.2705259 L56.9658879,0.464189655 Z" id="Fill-7"></path>
                            <path d="M83.6990991,7.38013362 C83.6990991,9.79409914 85.5347888,11.5799181 87.7980216,11.5799181 C90.0618147,11.5799181 91.8722888,9.79409914 91.8722888,7.3549181 C91.8722888,4.91573707 90.0618147,3.1299181 87.7980216,3.1299181 C85.5347888,3.1299181 83.6990991,4.91573707 83.6990991,7.3549181 L83.6990991,7.38013362 Z M80.4048319,7.32970259 C80.4048319,3.80905603 82.995306,0.0614698276 87.7980216,0.0614698276 C92.6018578,0.0614698276 95.1923319,3.80905603 95.1923319,7.3549181 C95.1923319,10.9259957 92.6018578,14.6730216 87.7980216,14.6730216 C82.995306,14.6730216 80.4048319,10.9259957 80.4048319,7.3549181 L80.4048319,7.32970259 Z" id="Fill-9"></path>
                            <path d="M97.5380474,0.464189655 L100.631711,0.464189655 C100.631711,1.06768103 100.631711,1.6459569 100.606496,2.29987931 C101.209987,1.21841379 102.442746,0.0114310345 104.907142,0.0366465517 C109.408392,0.061862069 110.263478,3.50742241 110.263478,5.94660345 L110.263478,14.2705259 L106.969211,14.2705259 L106.969211,6.77647414 C106.969211,4.71440517 106.290073,3.12975 103.976409,3.12975 C101.63753,3.15496552 100.833435,4.71440517 100.833435,6.6509569 L100.833435,14.2705259 L97.5380474,14.2705259 L97.5380474,0.464189655 Z" id="Fill-11"></path>
                            <path d="M66.3464526,27.3613017 C66.3464526,29.0714741 67.5786509,31.5610862 70.5462371,31.5610862 C72.3819267,31.5610862 73.5889095,30.6051379 74.2176164,29.3477241 C74.5448578,28.7442328 74.6955905,28.0908707 74.7460216,27.4117328 C74.7712371,26.7578103 74.6457198,26.0786724 74.3683491,25.475181 C73.7900733,24.1673362 72.5080043,23.0354397 70.5210216,23.0354397 C67.8549009,23.0354397 66.3464526,25.1983707 66.3464526,27.3360862 L66.3464526,27.3613017 Z M78.0150733,34.201431 L74.720806,34.201431 L74.720806,32.2150086 C73.8405043,33.8248793 72.0048147,34.6295345 70.0682629,34.6295345 C65.6420991,34.6295345 63.0521853,31.1834138 63.0521853,27.2856552 C63.0521853,22.9351379 66.1951595,19.9675517 70.0682629,19.9675517 C72.5830905,19.9675517 74.1173147,21.3006121 74.720806,22.4067328 L74.720806,20.3950948 L78.0150733,20.3950948 L78.0150733,34.201431 Z" id="Fill-13"></path>
                            <path d="M92.2399871,27.2857672 C92.2399871,25.2987845 90.8060647,23.0355517 88.0149871,23.0355517 C86.8080043,23.0355517 85.7769698,23.5135259 85.0221853,24.2929655 C84.2926164,25.04775 83.8404181,26.1292155 83.8404181,27.3361983 C83.8404181,28.5179655 84.2926164,29.5742155 85.0474009,30.329 C85.8021853,31.0832241 86.8584353,31.5611983 88.0402026,31.5611983 C90.5550302,31.5611983 92.2399871,29.5742155 92.2399871,27.3109828 L92.2399871,27.2857672 Z M80.6968836,20.3952069 L83.7899871,20.3952069 L83.7899871,22.4068448 C84.7705905,21.0239138 86.3804612,19.9671034 88.6689095,19.9671034 C93.4974009,19.9671034 95.5342543,24.0665862 95.5342543,27.4118448 C95.5342543,31.334819 92.7426164,34.6290862 88.694125,34.6290862 C86.0027888,34.6290862 84.5447716,33.2461552 83.9911509,32.3652931 L83.9911509,34.2015431 L83.9911509,41.4092586 L80.6968836,41.4092586 L80.6968836,20.3952069 Z" id="Fill-15"></path>
                            <path d="M109.068375,27.2857672 C109.068375,25.2987845 107.635013,23.0355517 104.843375,23.0355517 C103.636392,23.0355517 102.605918,23.5135259 101.851134,24.2929655 C101.121004,25.04775 100.668806,26.1292155 100.668806,27.3361983 C100.668806,28.5179655 101.121004,29.5742155 101.875789,30.329 C102.630573,31.0832241 103.686823,31.5611983 104.869151,31.5611983 C107.383978,31.5611983 109.068375,29.5742155 109.068375,27.3109828 L109.068375,27.2857672 Z M97.5252716,20.3952069 L100.618375,20.3952069 L100.618375,22.4068448 C101.599539,21.0239138 103.209409,19.9671034 105.497297,19.9671034 C110.325789,19.9671034 112.363203,24.0665862 112.363203,27.4118448 C112.363203,31.334819 109.571004,34.6290862 105.523073,34.6290862 C102.831737,34.6290862 101.373159,33.2461552 100.819539,32.3652931 L100.819539,34.2015431 L100.819539,41.4092586 L97.5252716,41.4092586 L97.5252716,20.3952069 Z" id="Fill-17"></path>
                        </g>
                        <g id="symbol" transform="translate(116.551724, 0.030259)" fill="url(#linearGradient-1)">
                            <path d="M44.8909052,0.675215517 C41.3467241,2.33887931 10.1820259,16.9694828 7.57810345,18.2369828 L7.57810345,18.2369828 C2.71318966,20.6722414 0.141767241,24.3312931 0.141767241,28.8185345 L0.141767241,28.8185345 C0.16137931,32.7034052 2.28508621,35.2540948 3.29482759,36.2464655 L3.29482759,36.2464655 C2.3125431,37.2259483 0.240387931,39.6640086 0.141767241,42.8932759 L0.141767241,42.8932759 C-0.0061637931,47.675819 2.09456897,51.3556034 6.23551724,53.54375 L6.23551724,53.54375 L29.0101724,64.3410345 C29.1491379,64.4065948 29.2981897,64.4396552 29.4461207,64.4396552 L29.4461207,64.4396552 C29.6366379,64.4396552 29.8265948,64.3858621 29.9930172,64.2788362 L29.9930172,64.2788362 C30.2905603,64.088319 30.4676293,63.7627586 30.4676293,63.4080603 L30.4676293,63.4080603 L30.4676293,50.4876293 C30.4676293,47.5054741 28.7412069,44.7496983 26.0683621,43.4698707 L26.0683621,43.4698707 L10.9390517,36.2262931 L41.7406466,21.6763793 C44.5378879,20.3539655 46.3461207,17.486681 46.3461207,14.3722845 L46.3461207,14.3722845 L46.3461207,1.81607759 C46.3461207,1.6037069 46.3461207,0.958189655 45.8787931,0.659525862 L45.8787931,0.659525862 C45.7286207,0.563146552 45.5762069,0.530086207 45.436681,0.530086207 L45.436681,0.530086207 C45.1951724,0.530086207 44.9889655,0.628146552 44.8909052,0.675215517 L44.8909052,0.675215517 Z M6.31844828,33.4660345 C6.29827586,33.4492241 4.24012931,31.721681 4.22275862,28.8073276 L4.22275862,28.8073276 C4.22331897,27.2585345 4.68728448,25.933319 5.63931034,24.7560345 L5.63931034,24.7560345 C6.49775862,23.6947414 7.7562931,22.7443966 9.37176724,21.9330172 L9.37176724,21.9330172 C11.52125,20.8879741 32.4490086,11.0567241 42.26625,6.44676724 L42.26625,6.44676724 L42.26625,14.3722845 C42.26625,15.8981034 41.3803448,17.3023276 40.0103017,17.9489655 L40.0103017,17.9489655 L6.63616379,33.7142672 L6.31844828,33.4660345 Z M8.05663793,49.8600431 C5.30366379,48.3868966 4.12077586,46.2777586 4.22107759,43.0199138 L4.22107759,43.0199138 C4.28719828,40.8250431 6.31844828,39.0218534 6.38568966,38.9635776 L6.38568966,38.9635776 L6.66810345,38.7371983 L24.3184052,47.1871983 C25.575819,47.7901293 26.3871983,49.0850862 26.3871983,50.4876293 L26.3871983,50.4876293 L26.3871983,58.5509914 L8.05663793,49.8600431 Z" id="Fill-26"></path>
                        </g>
                    </g>
                </g>
            </g>
        </g>
    </g>
</svg>