<?xml version="1.0" encoding="UTF-8"?>
<svg width="72px" height="82px" viewBox="0 0 72 82" version="1.1" xmlns="http://www.w3.org/2000/svg" xmlns:xlink="http://www.w3.org/1999/xlink">
    <!-- Generator: Sketch 52.6 (67491) - http://www.bohemiancoding.com/sketch -->
    <title>icon-direction</title>
    <desc>Created with Sketch.</desc>
    <g id="Desktop-R4" stroke="none" stroke-width="1" fill="none" fill-rule="evenodd" stroke-linecap="round" stroke-linejoin="round">
        <g id="0.0-Home-page-" transform="translate(-117.000000, -2535.000000)" stroke="#A4D233" stroke-width="2">
            <g id="c5.0-three-cards-blue-gradient-desktop" transform="translate(0.000000, 2089.000000)">
                <g id="card-why-college-matters" transform="translate(95.000000, 422.534653)">
                    <g id="icon-direction" transform="translate(23.000000, 24.972497)">
                        <path d="M0,21.8880767 L44.3640845,21.8880767 L44.3640845,13.6805425 L58.6060419,27.3600959 L44.3640845,41.0406384 L44.3640845,32.8331041 L35.8191062,32.8331041 L35.8191062,49.7476069 L33.2299268,49.7476069 C18.9291467,49.7476069 7.33519138,38.6107177 7.33519138,24.8747924 C7.33519138,11.1368892 18.9291467,0 33.2299268,0 L41.5160852,0 C55.6737301,0 64.303021,8.20852327 67.1510203,24.6255698 L70,46.5126576 L61.4540413,46.5126576 L61.4285514,57.0205563 C61.4285514,60.2831971 58.6756488,62.9306931 55.2776572,62.9306931 L35.8191062,62.9306931" id="Stroke-3"></path>
                        <path d="M35.54,62.9306931 L35.46,78.9130913" id="Stroke-5"></path>
                    </g>
                </g>
            </g>
        </g>
    </g>
</svg>