<?xml version="1.0" encoding="UTF-8"?>
<svg width="55px" height="79px" viewBox="0 0 55 79" version="1.1" xmlns="http://www.w3.org/2000/svg" xmlns:xlink="http://www.w3.org/1999/xlink">
    <!-- Generator: Sketch 52.6 (67491) - http://www.bohemiancoding.com/sketch -->
    <title>icon-calculator</title>
    <desc>Created with Sketch.</desc>
    <g id="Desktop-R4" stroke="none" stroke-width="1" fill="none" fill-rule="evenodd" stroke-linecap="round">
        <g id="0.0-Home-page-" transform="translate(-550.000000, -2535.000000)" stroke="#4DC8DE" stroke-width="2">
            <g id="c5.0-three-cards-blue-gradient-desktop" transform="translate(0.000000, 2089.000000)">
                <g id="card-paying" transform="translate(518.000000, 422.534653)">
                    <g id="icon-calculator" transform="translate(33.000000, 24.973597)">
                        <path d="M52.3109211,69.4924871 C52.3109211,73.303412 49.1855702,76.4214414 45.3645175,76.4214414 L7.15302632,76.4214414 C3.33197368,76.4214414 0.205657895,73.303412 0.205657895,69.4924871 L0.205657895,7.13189782 C0.205657895,3.32097293 3.33197368,0.202943465 7.15302632,0.202943465 L45.3645175,0.202943465 C49.1855702,0.202943465 52.3109211,3.32097293 52.3109211,7.13189782 L52.3109211,69.4924871 Z" id="Stroke-1"></path>
                        <path d="M14.1007807,31.3835268 C14.1007807,33.2966881 12.546307,34.848004 10.6270965,34.848004 C8.70885088,34.848004 7.15341228,33.2966881 7.15341228,31.3835268 C7.15341228,29.4703655 8.70885088,27.9180873 10.6270965,27.9180873 C12.546307,27.9180873 14.1007807,29.4703655 14.1007807,31.3835268 Z M24.5216404,31.3835268 C24.5216404,33.2966881 22.9671667,34.848004 21.0479561,34.848004 C19.1297105,34.848004 17.5742719,33.2966881 17.5742719,31.3835268 C17.5742719,29.4703655 19.1297105,27.9180873 21.0479561,27.9180873 C22.9671667,27.9180873 24.5216404,29.4703655 24.5216404,31.3835268 Z M34.9425,31.3835268 C34.9425,33.2966881 33.3880263,34.848004 31.4688158,34.848004 C29.5505702,34.848004 27.9960965,33.2966881 27.9960965,31.3835268 C27.9960965,29.4703655 29.5505702,27.9180873 31.4688158,27.9180873 C33.3880263,27.9180873 34.9425,29.4703655 34.9425,31.3835268 Z M45.3643246,31.3835268 C45.3643246,33.2966881 43.808886,34.848004 41.8896754,34.848004 C39.9714298,34.848004 38.4169561,33.2966881 38.4169561,31.3835268 C38.4169561,29.4703655 39.9714298,27.9180873 41.8896754,27.9180873 C43.808886,27.9180873 45.3643246,29.4703655 45.3643246,31.3835268 Z M14.1007807,41.7768621 C14.1007807,43.6900234 12.546307,45.2413393 10.6270965,45.2413393 C8.70885088,45.2413393 7.15341228,43.6900234 7.15341228,41.7768621 C7.15341228,39.8637008 8.70885088,38.3114226 10.6270965,38.3114226 C12.546307,38.3114226 14.1007807,39.8637008 14.1007807,41.7768621 Z M24.5216404,41.7768621 C24.5216404,43.6900234 22.9671667,45.2413393 21.0479561,45.2413393 C19.1297105,45.2413393 17.5742719,43.6900234 17.5742719,41.7768621 C17.5742719,39.8637008 19.1297105,38.3114226 21.0479561,38.3114226 C22.9671667,38.3114226 24.5216404,39.8637008 24.5216404,41.7768621 Z M34.9425,41.7768621 C34.9425,43.6900234 33.3880263,45.2413393 31.4688158,45.2413393 C29.5505702,45.2413393 27.9960965,43.6900234 27.9960965,41.7768621 C27.9960965,39.8637008 29.5505702,38.3114226 31.4688158,38.3114226 C33.3880263,38.3114226 34.9425,39.8637008 34.9425,41.7768621 Z M45.3643246,41.7768621 C45.3643246,43.6900234 43.808886,45.2413393 41.8896754,45.2413393 C39.9714298,45.2413393 38.4169561,43.6900234 38.4169561,41.7768621 C38.4169561,39.8637008 39.9714298,38.3114226 41.8896754,38.3114226 C43.808886,38.3114226 45.3643246,39.8637008 45.3643246,41.7768621 Z M14.1007807,52.1701012 C14.1007807,54.0832624 12.546307,55.6345783 10.6270965,55.6345783 C8.70885088,55.6345783 7.15341228,54.0832624 7.15341228,52.1701012 C7.15341228,50.2569399 8.70885088,48.705624 10.6270965,48.705624 C12.546307,48.705624 14.1007807,50.2569399 14.1007807,52.1701012 Z M24.5216404,52.1701012 C24.5216404,54.0832624 22.9671667,55.6345783 21.0479561,55.6345783 C19.1297105,55.6345783 17.5742719,54.0832624 17.5742719,52.1701012 C17.5742719,50.2569399 19.1297105,48.705624 21.0479561,48.705624 C22.9671667,48.705624 24.5216404,50.2569399 24.5216404,52.1701012 Z M34.9425,52.1701012 C34.9425,54.0832624 33.3880263,55.6345783 31.4688158,55.6345783 C29.5505702,55.6345783 27.9960965,54.0832624 27.9960965,52.1701012 C27.9960965,50.2569399 29.5505702,48.705624 31.4688158,48.705624 C33.3880263,48.705624 34.9425,50.2569399 34.9425,52.1701012 Z M14.1007807,62.5633402 C14.1007807,64.4765015 12.546307,66.0287798 10.6270965,66.0287798 C8.70885088,66.0287798 7.15341228,64.4765015 7.15341228,62.5633402 C7.15341228,60.6501789 8.70885088,59.098863 10.6270965,59.098863 C12.546307,59.098863 14.1007807,60.6501789 14.1007807,62.5633402 Z M24.5216404,62.5633402 C24.5216404,64.4765015 22.9671667,66.0287798 21.0479561,66.0287798 C19.1297105,66.0287798 17.5742719,64.4765015 17.5742719,62.5633402 C17.5742719,60.6501789 19.1297105,59.098863 21.0479561,59.098863 C22.9671667,59.098863 24.5216404,60.6501789 24.5216404,62.5633402 Z M34.9425,62.5633402 C34.9425,64.4765015 33.3880263,66.0287798 31.4688158,66.0287798 C29.5505702,66.0287798 27.9960965,64.4765015 27.9960965,62.5633402 C27.9960965,60.6501789 29.5505702,59.098863 31.4688158,59.098863 C33.3880263,59.098863 34.9425,60.6501789 34.9425,62.5633402 Z M7.15254386,17.5253294 L7.15254386,7.13189782 L45.3640351,7.13189782 L45.3640351,17.5253294 L7.15254386,17.5253294 Z M41.8900614,48.7050466 C43.808307,48.7050466 45.3647105,50.2563625 45.3647105,52.1704861 L45.3647105,62.5629553 C45.3647105,64.4770789 43.808307,66.0274325 41.8900614,66.0274325 C39.9718158,66.0274325 38.4163772,64.4770789 38.4163772,62.5629553 L38.4163772,52.1704861 C38.4163772,50.2563625 39.9718158,48.7050466 41.8900614,48.7050466 Z" id="Combined-Shape"></path>
                    </g>
                </g>
            </g>
        </g>
    </g>
</svg>