<?xml version="1.0" encoding="UTF-8"?>
<svg width="87px" height="73px" viewBox="0 0 87 73" version="1.1" xmlns="http://www.w3.org/2000/svg" xmlns:xlink="http://www.w3.org/1999/xlink">
    <!-- Generator: Sketch 52.6 (67491) - http://www.bohemiancoding.com/sketch -->
    <title>icon-path</title>
    <desc>Created with Sketch.</desc>
    <g id="Desktop-R4" stroke="none" stroke-width="1" fill="none" fill-rule="evenodd" stroke-linecap="round" stroke-linejoin="round">
        <g id="0.0-Home-page-" transform="translate(-965.000000, -2538.000000)" stroke="#0B6DBD" stroke-width="2">
            <g id="c5.0-three-cards-blue-gradient-desktop" transform="translate(0.000000, 2089.000000)">
                <g id="card-college-roadmap" transform="translate(939.000000, 422.534653)">
                    <path d="M57.0016287,65.4642042 L47.1255237,75.5944175 L47.1255237,68.6586313 L27,68.6586313 L27,55.8655973 L47.1255237,55.8655973 L47.1255237,48.657782 L70.8953913,69.1136097 C71.685938,69.9038353 72.6273378,70.5427207 73.6708976,70.9852471 C74.7173217,71.4277734 75.8649511,71.6729828 77.0708212,71.6729828 C78.2757366,71.6729828 79.4252755,71.4277734 80.4697901,70.9852471 C81.5152594,70.5427207 82.4547497,69.9038353 83.2452964,69.1136097 C84.0348883,68.3205106 84.6745819,67.3799026 85.1166388,66.3339313 C85.5577409,65.28796 85.8031159,64.1385409 85.8031159,62.9326088 C85.8031159,61.7247609 85.5577409,60.5753419 85.1166388,59.5293705 C84.6745819,58.4833992 84.0348883,57.5418334 83.2452964,56.7516078 C82.4547497,55.9604244 81.5152594,55.3205811 80.4697901,54.8780548 C79.4252755,54.4355284 78.2757366,54.1922347 77.0708212,54.1922347 C75.8649511,54.1922347 74.7173217,54.4355284 73.6708976,54.8780548 C73.5305469,54.9383993 73.3940153,55.0006595 73.2584385,55.0677089 C71.6114662,55.8665551 69.6331899,55.4882047 68.3385265,54.190319 C66.242814,52.0926293 66.7688903,48.505484 69.4345985,47.2056826 C69.7114808,47.0725416 69.9902726,46.9451476 70.2719287,46.8254165 C72.3619127,45.9403638 74.659081,45.4518607 77.0708212,45.4518607 C79.4816067,45.4518607 81.778775,45.9403638 83.8687589,46.8254165 C85.9577881,47.7104691 87.8405877,48.9891978 89.4197715,50.5715647 C90.9999101,52.1529738 92.2802521,54.0361053 93.1634111,56.128048 C94.0475249,58.2190328 94.5363654,60.5188288 94.5363654,62.9326088 C94.5363654,65.3454309 94.0475249,67.644269 93.1634111,69.7362117 C92.2802521,71.8271965 90.9999101,73.7103281 89.4197715,75.2936528 C87.8405877,76.874104 85.9577881,78.1547484 83.8687589,79.0398011 C81.778775,79.9248537 79.4816067,80.412399 77.0708212,80.412399 C74.659081,80.412399 72.3619127,79.9248537 70.2719287,79.0398011 C69.2579667,78.6106846 68.2936525,78.0867411 67.3885338,77.4823383 C65.682366,76.3434556 63.3966549,76.6174004 61.9463646,78.0704577 C60.006279,80.012018 60.3022566,83.2648739 62.5860582,84.7840228 C63.9332337,85.6805696 65.3672931,86.4545118 66.8729599,87.0924394 C70.0084132,88.4200184 73.4532108,89.152773 77.0708212,89.152773 C80.6874768,89.152773 84.134184,88.4200184 87.2677278,87.0924394 C90.4022263,85.7648604 93.2245162,83.8462884 95.5942467,81.4736959 C97.964932,79.1011034 99.8840127,76.2754483 101.208274,73.1375342 C102.534445,70.0005781 103.267705,66.5532788 103.267705,62.9326088 C103.267705,59.3119388 102.534445,55.8627238 101.208274,52.7257676 C99.8840127,49.5878536 97.964932,46.7631563 95.5942467,44.3896059 C93.2245162,42.0179713 90.4022263,40.0984415 87.2677278,38.7708625 C84.134184,37.4442413 80.6874768,36.709571 77.0708212,36.709571 C73.4532108,36.709571 70.0084132,37.4442413 66.8729599,38.7708625 C65.2909117,39.4403991 63.1856515,40.8647208 61.4871219,42.1127983 C59.7580397,43.3819486 57.3682591,43.2066621 55.8520898,41.6913447 C53.9788379,39.8149181 54.2051175,36.7038239 56.3428398,35.1377404 C58.5970436,33.4816191 61.380188,31.602319 63.473991,30.7172663 C67.6530041,28.9490767 72.2473407,27.9691969 77.0708212,27.9691969 C81.893347,27.9691969 86.4876835,28.9490767 90.6666966,30.7172663 C94.8466645,32.4864138 98.6093994,35.0457869 101.770631,38.2114785 C104.929954,41.3742966 107.487773,45.1405597 109.255046,49.3225293 C111.022319,53.5064147 112,58.1040909 112,62.9326088 C112,67.7592109 111.022319,72.3568871 109.255046,76.5407725 C107.487773,80.7237 104.929954,84.4909209 101.770631,87.653739 C98.6093994,90.817515 94.8466645,93.3778459 90.6666966,95.1460355 C86.5000955,96.9113516 81.9181709,97.8874 77.1099666,97.8921892 L77.1013737,97.8921892 C72.278848,97.8921892 67.6845114,96.9113516 63.5054983,95.1412463 C59.32744,93.3720988 55.5637503,90.8127257 52.4034731,87.6489498" id="icon-path"></path>
                </g>
            </g>
        </g>
    </g>
</svg>