<?xml version="1.0" encoding="UTF-8"?>
<svg width="14px" height="18px" viewBox="0 0 14 18" version="1.1" xmlns="http://www.w3.org/2000/svg" xmlns:xlink="http://www.w3.org/1999/xlink">
    <!-- Generator: sketchtool 53.2 (72643) - https://sketchapp.com -->
    <title>91962F92-9A13-4F33-A8EB-999083640F5E</title>
    <desc>Created with sketchtool.</desc>
    <g id="Events-Clean-R2" stroke="none" stroke-width="1" fill="none" fill-rule="evenodd">
        <g id="Events-—-Tablet-768-px" transform="translate(-159.000000, -780.000000)" stroke-width="1.5">
            <g id="Stacked-Group" transform="translate(75.000000, 511.000000)">
                <g id="date-tile">
                    <g id="location" transform="translate(85.000000, 48.000000)">
                        <g id="Stacked-Group" transform="translate(0.000000, -0.000000)">
                            <g id="Group" transform="translate(0.000000, 219.000000)">
                                <g id="location" transform="translate(0.000000, -0.000000)">
                                    <g id="icons/-icon-location">
                                        <g transform="translate(0.000000, 3.000000)">
                                            <g id="icon_location" transform="translate(-0.000000, 0.000000)">
                                                <path d="M12.2553191,6.12765957 C12.2553191,11.2340426 6.12765957,16 6.12765957,16 C6.12765957,16 0,11.2340426 0,6.12765957 C0,2.74348936 2.74348936,0 6.12765957,0 C9.51182979,0 12.2553191,2.74348936 12.2553191,6.12765957 Z" id="Stroke-1" stroke="#0B6DBD"></path>
                                                <path d="M8.53066333,6.14768461 C8.53066333,7.46376971 7.46376971,8.53066333 6.14768461,8.53066333 C4.8315995,8.53066333 3.76470588,7.46376971 3.76470588,6.14768461 C3.76470588,4.8315995 4.8315995,3.76470588 6.14768461,3.76470588 C7.46376971,3.76470588 8.53066333,4.8315995 8.53066333,6.14768461 Z" id="Stroke-3" stroke="#2E6FCB"></path>
                                            </g>
                                        </g>
                                    </g>
                                </g>
                            </g>
                        </g>
                    </g>
                </g>
            </g>
        </g>
    </g>
</svg>