<svg width="76" height="107" viewBox="0 0 76 107" fill="none" xmlns="http://www.w3.org/2000/svg">
<path fill-rule="evenodd" clip-rule="evenodd" d="M39.203 105.936H36.96C35.062 105.936 33.407 104.646 32.947 102.807L30 95.8955H46.162L43.216 102.807C42.756 104.646 41.101 105.936 39.203 105.936Z" stroke="white" stroke-width="2" stroke-linecap="round" stroke-linejoin="round"/>
<path d="M29.5 87.9043V94.9775" stroke="white" stroke-width="2" stroke-linecap="round" stroke-linejoin="round"/>
<path d="M45.5 87.9043V94.9775" stroke="white" stroke-width="2" stroke-linecap="round" stroke-linejoin="round"/>
<path d="M38 1C53 1.9989 83 36.9604 42 87.9043" stroke="white" stroke-width="2" stroke-linecap="round" stroke-linejoin="round"/>
<path d="M37.7075 1C22.7075 1.9989 -7.2925 36.9604 33.7075 87.9043" stroke="white" stroke-width="2" stroke-linecap="round" stroke-linejoin="round"/>
<path d="M37.9772 1C24.2692 8.9912 20.5622 44.9516 36.2692 87.9043" stroke="white" stroke-width="2" stroke-linecap="round" stroke-linejoin="round"/>
<path d="M38 1C51.708 8.9912 55.415 44.9516 39.708 87.9043" stroke="white" stroke-width="2" stroke-linecap="round" stroke-linejoin="round"/>
<path d="M38 86.9054V1M38 1C19 1 1 14.9846 1 38.9582C1 62.9528 30 87.9043 30 87.9043H46C46 87.9043 75 62.9528 75 38.9582C75 14.9846 57 1 38 1Z" stroke="white" stroke-width="2" stroke-linecap="round" stroke-linejoin="round"/>
</svg>
