<svg width="87" height="73" viewBox="0 0 87 73" fill="none" xmlns="http://www.w3.org/2000/svg">
<path d="M31.0016 38.9989L21.1255 49.1291V42.1933H1V29.4003H21.1255V22.1925L44.8954 42.6483C45.6859 43.4385 46.6273 44.0774 47.6709 44.52C48.7173 44.9625 49.865 45.2077 51.0708 45.2077C52.2757 45.2077 53.4253 44.9625 54.4698 44.52C55.5153 44.0774 56.4547 43.4385 57.2453 42.6483C58.0349 41.8552 58.6746 40.9146 59.1166 39.8686C59.5577 38.8227 59.8031 37.6733 59.8031 36.4673C59.8031 35.2595 59.5577 34.1101 59.1166 33.0641C58.6746 32.0181 58.0349 31.0765 57.2453 30.2863C56.4547 29.4951 55.5153 28.8553 54.4698 28.4128C53.4253 27.9702 52.2757 27.7269 51.0708 27.7269C49.865 27.7269 48.7173 27.9702 47.6709 28.4128C47.5305 28.4731 47.394 28.5354 47.2584 28.6024C45.6115 29.4013 43.6332 29.0229 42.3385 27.725C40.2428 25.6273 40.7689 22.0402 43.4346 20.7404C43.7115 20.6072 43.9903 20.4799 44.2719 20.3601C46.3619 19.4751 48.6591 18.9866 51.0708 18.9866C53.4816 18.9866 55.7788 19.4751 57.8688 20.3601C59.9578 21.2452 61.8406 22.5239 63.4198 24.1063C64.9999 25.6877 66.2803 27.5708 67.1634 29.6628C68.0475 31.7537 68.5364 34.0535 68.5364 36.4673C68.5364 38.8801 68.0475 41.179 67.1634 43.2709C66.2803 45.3619 64.9999 47.245 63.4198 48.8284C61.8406 50.4088 59.9578 51.6895 57.8688 52.5745C55.7788 53.4596 53.4816 53.9471 51.0708 53.9471C48.6591 53.9471 46.3619 53.4596 44.2719 52.5745C43.258 52.1454 42.2937 51.6215 41.3885 51.017C39.6824 49.8782 37.3967 50.1521 35.9464 51.6052C34.0063 53.5467 34.3023 56.7996 36.5861 58.3187C37.9332 59.2153 39.3673 59.9892 40.873 60.6271C44.0084 61.9547 47.4532 62.6875 51.0708 62.6875C54.6875 62.6875 58.1342 61.9547 61.2677 60.6271C64.4022 59.2996 67.2245 57.381 69.5942 55.0084C71.9649 52.6358 73.884 49.8102 75.2083 46.6722C76.5344 43.5353 77.2677 40.088 77.2677 36.4673C77.2677 32.8466 76.5344 29.3974 75.2083 26.2605C73.884 23.1226 71.9649 20.2979 69.5942 17.9243C67.2245 15.5527 64.4022 13.6332 61.2677 12.3056C58.1342 10.979 54.6875 10.2443 51.0708 10.2443C47.4532 10.2443 44.0084 10.979 40.873 12.3056C39.2909 12.9751 37.1857 14.3994 35.4871 15.6475C33.758 16.9167 31.3683 16.7414 29.8521 15.2261C27.9788 13.3496 28.2051 10.2385 30.3428 8.67245C32.597 7.01633 35.3802 5.13703 37.474 4.25198C41.653 2.48379 46.2473 1.50391 51.0708 1.50391C55.8933 1.50391 60.4877 2.48379 64.6667 4.25198C68.8467 6.02112 72.6094 8.5805 75.7706 11.7462C78.93 14.909 81.4878 18.6753 83.255 22.8572C85.0223 27.0411 86 31.6388 86 36.4673C86 41.2939 85.0223 45.8916 83.255 50.0755C81.4878 54.2584 78.93 58.0256 75.7706 61.1884C72.6094 64.3522 68.8467 66.9126 64.6667 68.6807C60.5001 70.4461 55.9182 71.4221 51.11 71.4269H51.1014C46.2788 71.4269 41.6845 70.4461 37.5055 68.6759C33.3274 66.9068 29.5638 64.3474 26.4035 61.1837" stroke="#0B6DBD" stroke-width="2" stroke-linecap="round" stroke-linejoin="round"/>
</svg>
