<svg width="49" height="60" viewBox="0 0 49 60" fill="none" xmlns="http://www.w3.org/2000/svg">
<path d="M4.11967 36.0093C5.50673 37.3477 6.89379 38.646 8.28085 39.9576C8.78713 40.4328 9.32808 40.8744 9.83436 41.3563C11.6098 43.0627 13.3783 44.7759 15.0774 46.556L17.38 48.8915C18.408 49.8671 19.2652 50.9971 19.9183 52.2375C20.0986 52.6591 19.9183 52.6525 19.5715 52.4316C19.0404 52.1031 18.5392 51.7315 18.0735 51.3207C17.8308 51.0798 17.5603 50.8456 17.3106 50.6114L16.9153 50.2701L16.5269 49.9489L15.015 48.4833C14.0094 47.5063 12.9761 46.5359 11.9912 45.5053C10.8192 44.274 9.43905 43.1364 8.14908 41.9586L3.90468 38.037C3.03777 37.2206 2.17779 36.4108 1.33168 35.5543C1.17217 35.3937 1.00572 35.233 0.853146 35.059C0.700569 34.8851 0.693634 34.8917 0.617345 34.7981C0.541057 34.7044 0.457833 34.6241 0.353804 34.4768C0.140682 34.2377 0.0313752 33.9285 0.0486505 33.6136C0.0746265 33.459 0.12125 33.3082 0.187357 33.1652C0.249774 33.018 0.332998 32.8641 0.381545 32.7771C0.853146 31.9606 1.38716 31.2513 1.87957 30.5085C2.65632 29.3708 3.36372 28.2198 4.07113 27.0821C4.23064 26.8278 4.36241 26.5735 4.53579 26.3326C4.75092 26.0117 4.99458 25.7094 5.264 25.4292C5.43012 25.2942 5.62762 25.2001 5.83963 25.1548C5.92121 25.1272 6.00462 25.1048 6.0893 25.0879C6.2072 25.0879 6.26962 25.1883 6.27655 25.4359C6.28083 25.7744 6.20989 26.1098 6.06849 26.4196C5.10449 28.7484 3.3984 30.736 2.17085 32.8774C2.06682 33.0715 1.95586 33.2656 1.8657 33.4463L1.80328 33.5801C1.80328 33.5801 1.80328 33.6203 1.80328 33.5801L1.94199 33.7474L2.16392 33.995C2.77422 34.6642 3.47469 35.3334 4.16128 36.0026L4.11967 36.0093Z" fill="white"/>
<path d="M25.5898 39.241C25.5898 39.241 27.1919 39.1406 27.4416 38.264C27.6912 37.3873 27.4416 40.8873 27.4416 40.8873L25.5898 39.241Z" fill="white"/>
<path d="M27.9424 31.9871L23.7119 32.1744L22.1792 32.2815L19.4605 32.422C18.552 32.422 17.6435 32.4823 16.735 32.5358C15.9305 32.5893 15.126 32.6563 14.3353 32.7232L11.263 32.9842C10.944 32.9842 10.9856 32.9842 11.263 32.944C11.5404 32.9039 12.0189 32.7767 12.6015 32.683C14.6821 32.3417 16.7627 32.0138 18.8433 31.793L22.6993 31.3982L26.9507 31.0435L29.5653 30.8561C30.8899 30.7557 32.2145 30.6754 33.5253 30.5416C34.5448 30.4479 35.5296 30.2739 36.5352 30.14C36.7572 30.14 36.9722 30.0731 37.2288 30.053C38.0541 29.9727 38.3245 30.053 38.5326 30.3274C38.5838 30.3896 38.628 30.4569 38.6644 30.5282C38.7684 30.7624 38.4494 30.9832 37.846 31.1104C36.0024 31.4661 34.134 31.6898 32.2562 31.7796L27.9424 32.0071V31.9871Z" fill="white"/>
<path d="M15.2651 29.7195L14.3704 28.6287C14.2595 28.4949 14.1346 28.3744 14.0306 28.2406C13.6769 27.7454 13.3371 27.2435 12.9973 26.7349L12.5395 26.0657C12.3337 25.7993 12.1722 25.5035 12.061 25.189C11.9986 24.9816 12.4147 25.1154 12.6436 25.3898C13.0319 25.9185 13.4966 26.4137 13.9058 26.9624C14.1763 27.2775 14.4633 27.5791 14.7658 27.8658L15.709 28.8964L16.2985 29.5255C16.6036 29.84 16.9018 30.1612 17.2278 30.449C17.4948 30.6587 17.7725 30.8552 18.06 31.0379C18.1251 31.0741 18.1876 31.1144 18.2473 31.1583C18.4623 31.3323 18.4761 31.4394 18.3166 31.6803C18.2837 31.7385 18.2466 31.7944 18.2057 31.8476C18.0856 32.0173 17.8522 32.0722 17.6647 31.9748C17.1112 31.6651 16.6145 31.2694 16.1944 30.8037C15.8685 30.4624 15.5564 30.1345 15.2374 29.753L15.2651 29.7195Z" fill="white"/>
<path d="M6.15578 36.0498C7.82719 37.9035 9.56101 39.7037 11.2948 41.5038C11.9398 42.173 12.6819 42.7552 13.2922 43.4244C15.5462 45.78 17.7516 48.1892 19.9432 50.6318C20.8933 51.7293 21.8989 52.8 22.8699 53.8908L23.8131 54.9549C24.0905 55.3497 24.3609 55.7311 24.6037 56.1594C25.1614 57.0358 25.5097 58.0211 25.6232 59.0437C25.6232 59.8534 25.1585 59.5657 24.6037 59.2578C23.821 58.931 23.0789 58.5202 22.3913 58.0332C22.0723 57.7454 21.7325 57.4644 21.3788 57.1833C21.0558 56.8783 20.7502 56.5566 20.4633 56.2197L18.6046 54.212L17.6684 53.2082L16.7737 52.1442C16.1773 51.4281 15.5878 50.7054 15.0052 49.9693C13.4833 48.2394 11.8626 46.5928 10.1505 45.0372C8.36121 43.2304 6.5719 41.4034 4.81033 39.5364C3.71455 38.4054 2.63958 37.2343 1.58542 35.9628L1.29413 35.5747C1.17623 35.4141 1.05833 35.22 0.940433 35.0393C0.726531 34.6855 0.587455 34.2943 0.53125 33.8883C0.56963 33.4691 0.667645 33.057 0.822533 32.6636C1.01672 32.2487 1.13462 31.9944 1.2872 31.72C1.86283 30.6359 2.47313 29.6254 3.03489 28.6015C3.47182 27.7985 3.86713 26.9955 4.24164 26.1857C4.61614 25.376 4.93517 24.5462 5.37209 23.79C5.56628 23.4487 5.70499 23.1208 5.89917 22.7795C6.12338 22.3326 6.40789 21.9163 6.74528 21.5414C6.99426 21.3414 7.28906 21.2014 7.60526 21.1332C7.7509 21.1332 7.90348 21.0395 8.02831 21.0195C8.15315 20.9994 8.38895 21.1399 8.50685 21.4745C8.65495 21.9388 8.67644 22.432 8.56927 22.9066C8.40282 23.7565 8.19476 24.5997 7.96589 25.4228C7.85556 25.832 7.707 26.2307 7.52203 26.614C7.35559 27.0021 7.17527 27.3836 6.99495 27.765C6.26674 29.2908 5.45531 30.7832 4.75485 32.2353L4.35954 33.0049C4.29621 33.1265 4.24063 33.2516 4.19309 33.3797L4.13067 33.5269C4.11994 33.5209 4.10672 33.5209 4.096 33.5269C4.02664 33.4466 4.26938 33.7544 4.41502 33.9418L4.96984 34.611C5.36516 35.0594 5.78127 35.5077 6.20433 35.9494L6.15578 36.0498Z" fill="white"/>
<path d="M41.34 17.8268C42.057 19.5666 42.9102 21.2512 43.8922 22.8659C44.8839 24.5122 45.9728 26.1049 47.1726 27.7578L48.3932 29.4509L48.6013 29.9796L48.6984 30.2473L48.7538 30.3744V30.4413H48.6429C48.6738 30.6208 48.6738 30.8039 48.6429 30.9834C48.5902 31.1715 48.5157 31.3534 48.4209 31.5255C48.2103 31.89 47.9787 32.243 47.7274 32.5828L47.4084 33.0111L47.1795 33.3055C43.8853 37.3609 40.5355 41.2624 37.3799 45.3512C35.9929 47.1648 34.6058 49.0185 33.3644 50.8722C32.546 52.0634 31.7762 53.288 31.0133 54.4993C30.2505 55.7105 29.3627 56.8616 28.6692 58.0795C28.2531 58.829 27.9757 58.6617 27.8092 57.7784C27.6725 56.382 27.8793 54.9742 28.4126 53.6695C29.8198 50.9992 31.3972 48.4155 33.1355 45.9335C34.9248 43.5042 36.8112 41.1553 38.7947 38.8599C39.9737 37.5215 41.1111 36.0426 42.2208 34.5703L45.0434 30.7826C45.0434 30.7291 45.1544 30.6622 45.1128 30.602L45.0018 30.4347C45.0018 30.3677 44.9186 30.3008 44.8701 30.2272L44.7314 30.0264L44.5302 29.7521L43.7257 28.6546C43.1987 27.9318 42.6438 27.1957 42.1237 26.4127C41.0553 24.8773 40.0826 23.2817 39.2109 21.6346C38.8988 21.0457 38.6075 20.4434 38.3301 19.8344C38.1844 19.5333 38.0596 19.2255 37.9278 18.9176L37.7822 18.5763L37.7059 18.3488C37.6638 18.2091 37.6057 18.0745 37.5325 17.9473C37.3864 17.9181 37.2378 17.9024 37.0887 17.9004H36.8598H35.6461C34.689 17.8536 33.732 18.0811 32.768 18.041L29.8829 18.1012L26.9978 18.2083C26.0407 18.2083 25.0837 18.2685 24.1266 18.3153C21.1583 18.4693 18.2593 18.8842 15.3326 19.1987C14.6876 19.2656 14.0635 19.3794 13.4115 19.4262C12.7596 19.4731 12.3088 19.4865 11.8858 19.4798C11.5197 19.4277 11.1642 19.3216 10.8316 19.1652C10.3408 18.9293 9.92423 18.5712 9.62486 18.128C9.48921 17.9591 9.36415 17.7826 9.25036 17.5993C9.11859 17.3115 9.29197 17.0372 9.70809 16.6892C10.2795 16.2033 10.9472 15.8345 11.6708 15.6051C14.33 15.0937 17.0154 14.7184 19.7157 14.4808C21.1028 14.347 22.4898 14.2377 23.8769 14.1529C25.264 14.0726 26.651 13.9588 28.0381 13.9789H30.8122H32.1993C32.6627 13.9689 33.1263 13.9913 33.5863 14.0458C34.0579 14.1194 34.5295 14.2131 34.9734 14.2667H36.4021C36.5477 14.2667 37.1511 14.2667 37.5672 14.3001C37.7994 14.3029 38.0311 14.3208 38.2607 14.3537H38.5936C38.6948 14.3746 38.7911 14.4132 38.878 14.4674C39.0611 14.5404 39.2247 14.6525 39.3565 14.7953L39.5715 14.976C39.6409 14.8823 39.4328 15.1768 39.7241 14.7753L39.7657 14.8288L39.8558 14.9492L40.5841 15.8727L41.1597 17.1576L41.4163 17.7666L41.34 17.8268Z" fill="white"/>
<path d="M27.5414 32.737C25.6272 32.8173 23.7061 32.9177 21.792 33.0649C21.0985 33.1117 20.4049 33.2657 19.7114 33.2991C17.2286 33.3928 14.7457 33.4999 12.2698 33.6939C11.715 33.7341 11.1741 33.8144 10.6192 33.8546L8.97557 34.0018C8.28204 34.0687 7.58851 34.149 6.89498 34.1892H6.36096L5.82 34.1289C5.45243 34.0888 5.0918 34.0486 4.71729 33.975C4.48149 33.9349 4.34972 33.8479 4.3844 33.8144C4.41907 33.7809 4.53004 33.7542 4.70342 33.6471C4.94307 33.5078 5.1746 33.3559 5.39695 33.192L5.86162 32.8708C5.94484 32.8039 6.035 32.7638 6.12516 32.6901L6.40257 32.6031C7.78963 32.215 9.17669 31.8068 10.5638 31.4789C11.9508 31.2781 13.4142 31.1242 14.8706 31.0506C16.6044 30.977 18.3382 30.5554 20.1345 30.3814C22.0764 30.194 24.0252 30.0468 25.974 29.9196L29.5873 29.6988C31.4043 29.585 33.2422 29.5449 35.0523 29.4244C35.7458 29.3776 36.4394 29.2973 37.1329 29.217L38.1871 29.0965C38.3604 29.0965 38.5408 29.0497 38.7141 29.043H39.2482C39.5672 29.043 39.8723 29.043 40.1914 29.043C41.3634 29.1768 41.731 29.4378 41.8974 30.1003C41.9458 30.2378 41.9829 30.3788 42.0084 30.5219C42.0639 30.9435 41.5507 31.3852 40.7462 31.5391C40.1428 31.6796 39.5394 31.8202 38.9222 31.9741C38.3135 32.089 37.697 32.1606 37.0774 32.1882C35.836 32.2819 34.5599 32.3622 33.2838 32.4291C31.3835 32.5429 29.4555 32.6232 27.5344 32.7704L27.5414 32.737Z" fill="white"/>
<path d="M28.0164 25.236C27.3229 25.9052 26.6293 26.5744 25.9358 27.2436L23.7789 29.2713C23.2519 29.7665 22.7941 30.322 22.2393 30.8105L21.4695 31.4797C21.0796 31.824 20.6596 32.1352 20.2142 32.4099C19.9893 32.5099 19.7576 32.5949 19.5207 32.6642C19.2887 32.6858 19.0547 32.6722 18.8271 32.624C18.34 32.4835 17.8967 32.2282 17.5372 31.8812C17.336 31.7206 17.1488 31.5466 16.9615 31.3726L16.5801 30.9711C16.3512 30.7369 16.1362 30.4893 15.9282 30.2484L14.7006 28.7962C14.0071 27.9463 13.2165 27.1365 12.4467 26.3603C11.9205 25.8917 11.4335 25.3837 10.9902 24.8412C10.5603 24.2924 10.1511 23.7169 9.70721 23.1682C9.43673 22.8269 9.56157 22.7399 10.0332 22.7666C10.7759 22.8145 11.5027 22.9961 12.1762 23.302L12.6894 23.5764C12.8636 23.656 13.0248 23.7597 13.1679 23.8842L14.0002 24.6203C14.5481 25.1155 15.0821 25.6174 15.5953 26.126C16.6217 27.1432 17.6204 28.1939 18.522 29.2245C18.6027 29.2993 18.6685 29.3877 18.7162 29.4855C18.7582 29.5422 18.8046 29.5959 18.8549 29.6461C18.9053 29.6999 18.9701 29.7392 19.0421 29.7598C19.1115 29.7598 19.167 29.7063 19.2294 29.6661C19.2859 29.623 19.3392 29.576 19.3889 29.5256L19.701 29.2044L20.6026 28.2675L24.6667 24.0448L25.9705 22.7666L27.4061 21.4282C27.8549 20.9731 28.3659 20.5791 28.9249 20.2571C29.1853 20.1406 29.4644 20.0682 29.7502 20.043C30.0205 20.1408 30.2698 20.286 30.4854 20.4713C30.9785 20.8866 31.4419 21.3338 31.8724 21.8097L32.8295 22.8068C33.8213 23.8173 34.9101 24.6939 35.9781 25.6375C36.2139 25.845 36.4636 26.0257 36.6717 26.2465C36.7757 26.3469 36.8659 26.4473 36.9491 26.5343C37.0323 26.6213 37.067 26.735 37.1155 26.822C37.1974 26.9824 37.2535 27.1539 37.282 27.3306C37.3026 27.4834 37.2884 27.6387 37.2404 27.7857C37.1706 27.9591 37.0823 28.1251 36.9768 28.2809C36.8797 28.4348 36.8104 28.5887 36.7202 28.7025C36.4775 29.0438 35.5828 29.1709 34.8338 28.7025C34.5444 28.553 34.2744 28.3711 34.0293 28.1604C33.7727 27.9664 33.523 27.7589 33.2803 27.5515C32.7879 27.1365 32.3163 26.7016 31.8516 26.2532C31.387 25.8048 30.9292 25.3431 30.4646 24.9148L29.771 24.2121L29.5006 23.9244C29.5006 23.9244 29.5006 23.9244 29.5006 23.8842C29.5006 23.8441 29.5006 23.8842 29.452 23.8842L29.3341 24.0114L29.0844 24.259L28.0788 25.2895L28.0164 25.236Z" fill="white"/>
<path d="M15.4579 38.5734C15.7631 38.3525 16.0682 38.1451 16.3526 37.9041C16.4566 37.8238 16.5121 37.7034 16.623 37.6298C17.0045 37.3554 17.4137 37.1078 17.7743 36.8267C17.9254 36.6961 18.0501 36.5395 18.1419 36.365C18.2667 36.1441 18.3083 35.8631 18.6412 35.7962C18.8493 35.7493 20.3404 37.0543 20.1808 37.3286C19.885 37.8029 19.444 38.177 18.9186 38.3994C18.5788 38.5399 18.4401 38.8544 18.2251 39.0686C18.0101 39.2827 17.6772 39.5437 17.4067 39.7779C17.1362 40.0121 17.0669 40.0657 16.9074 40.2196C16.6649 40.4315 16.4334 40.6548 16.2139 40.8888C16.0613 41.0829 16.0058 41.3506 15.8393 41.558C15.8176 41.6073 15.7871 41.6526 15.7492 41.6919C15.5897 41.8324 15.444 41.8056 15.1042 41.6115L14.8684 41.4777C14.647 41.3548 14.4924 41.1445 14.4454 40.9022C14.4036 40.6091 14.4036 40.3119 14.4454 40.0188C14.5183 39.7867 14.6159 39.5624 14.7366 39.3496C14.8823 39.0016 15.2221 38.8076 15.4787 38.5533L15.4579 38.5734Z" fill="white"/>
<path d="M29.7649 41.0092C29.7352 41.1978 29.6694 41.3793 29.5707 41.5446L29.3487 41.9929L28.891 42.9164C28.7731 43.0302 28.7038 43.2243 28.565 43.338C28.5384 43.3297 28.5128 43.3184 28.4888 43.3046C27.3583 42.6677 26.3067 41.9089 25.354 41.0427L24.7229 40.4671L24.4039 40.1928L24.1542 39.8247C23.9392 39.5369 23.6479 39.3496 23.5439 39.209C23.393 39.0464 23.2796 38.8549 23.211 38.6469C23.1694 38.4997 23.4607 38.2052 23.8421 37.9777C24.2235 37.7502 24.7368 37.5226 24.9795 37.6364L25.2846 37.7836H25.3263C25.3263 37.7836 25.3263 37.7836 25.3263 37.8439C25.356 38.0336 25.4193 38.2169 25.5135 38.3859C25.5694 38.5106 25.6521 38.6224 25.7562 38.7138C25.8325 38.7807 25.8741 38.7674 25.9712 38.861C25.9936 38.8721 26.0145 38.8855 26.0337 38.9012C26.0891 38.9012 26.1724 39.0217 26.2278 39.0283C26.2662 39.0149 26.3015 38.9944 26.3319 38.9681C26.3967 38.9122 26.4486 38.8438 26.4845 38.7674C26.5453 38.6384 26.5828 38.5003 26.5954 38.3591C26.6628 38.0525 26.6628 37.7356 26.5954 37.4289C26.5361 37.2187 26.445 37.018 26.3249 36.8334C26.2279 36.6326 26.1169 36.4318 26.0337 36.2177C25.992 36.124 25.9227 36.0303 25.9435 35.9299C25.9851 35.5351 26.2348 35.341 26.9561 35.2607C27.1168 35.2374 27.279 35.224 27.4415 35.2206C27.8915 35.197 28.3402 35.2845 28.7454 35.4749L29.0713 35.6756C29.1543 35.7429 29.2287 35.8192 29.2933 35.9032C29.4198 36.0614 29.529 36.2319 29.6192 36.4118C29.6824 36.593 29.7311 36.7787 29.7649 36.9672V37.1077L29.8065 37.3888L29.8758 37.9442C29.9808 38.9768 29.9808 40.0168 29.8758 41.0493L29.7649 41.0092Z" fill="white"/>
<path d="M13.7459 10.5198C13.9609 10.5198 13.8014 10.7808 13.4407 11.2426C13.2606 11.4492 13.0504 11.6296 12.8166 11.778C12.6609 11.8252 12.5005 11.8566 12.338 11.8716C11.9622 11.709 11.5964 11.5258 11.2423 11.3229C11.0045 11.196 10.7967 11.0228 10.6319 10.8143C10.2852 10.4128 9.93842 10.0246 9.59165 9.62311C9.51889 9.52705 9.467 9.41779 9.43908 9.30189C9.34107 8.90901 9.13223 8.54999 8.83571 8.26463C8.79409 8.21109 8.76635 8.14417 8.65539 8.14417C8.54442 8.14417 7.8717 7.21397 7.86476 7.05336C7.81092 6.6582 7.77852 6.2606 7.76767 5.86218C7.76767 5.80864 7.71912 5.76849 7.76767 5.68149C7.86769 5.57039 7.88951 5.41248 7.82315 5.27997C7.78305 5.12009 7.76441 4.95591 7.76767 4.79145C7.79567 4.68205 7.84256 4.57799 7.90638 4.48362C7.95492 4.39662 8.23234 4.3297 8.26701 4.33639C8.30169 4.34308 8.48201 4.26278 8.59297 4.21593L8.70394 4.17578C8.8787 4.22762 9.04817 4.29482 9.21021 4.37654C9.39452 4.44573 9.57508 4.5239 9.75117 4.61076C9.75117 4.61076 9.98003 4.81153 10.2505 5.0056C10.521 5.19967 10.7152 5.44727 10.7776 5.48073C10.84 5.51419 10.8331 5.61457 10.84 5.68819C10.8469 5.7618 11.5821 6.35739 11.6029 6.35739C11.6931 6.52469 11.8872 6.63176 11.811 6.91283C11.811 6.97306 11.811 6.99314 11.8526 7.0266C12.061 7.29211 12.2335 7.58222 12.3658 7.88987C12.4579 8.03405 12.5623 8.17059 12.6779 8.29809C12.6779 8.29809 12.6779 8.36501 12.6779 8.39847C12.6779 8.43193 12.6779 8.49216 12.7125 8.51892C12.9316 8.85857 13.1873 9.17487 13.4754 9.4625C13.5586 9.51604 13.6349 10.0246 13.732 10.0782C13.8291 10.1317 13.6627 10.5198 13.7459 10.5198Z" fill="white"/>
<path d="M33.6374 8.5056C33.6999 8.71305 33.3739 8.68629 32.8191 8.5056C32.5696 8.40369 32.3361 8.26853 32.1255 8.10408C32.0339 7.9789 31.9527 7.84687 31.8828 7.70925C31.8828 7.64232 31.973 6.83259 31.9868 6.54483C31.9989 6.28067 32.0649 6.02141 32.181 5.78193C32.403 5.30011 32.5971 4.80489 32.8121 4.32307C32.8602 4.2107 32.9336 4.1101 33.0271 4.02862C33.3407 3.74536 33.5624 3.38038 33.6652 2.97796C33.6652 2.91104 33.7345 2.85751 33.6652 2.75713C33.7168 2.30137 33.8835 1.86479 34.1507 1.48564L35.0453 0.702666C35.0869 0.669205 35.0453 0.602285 35.2048 0.608977C35.3563 0.640734 35.51 0.565185 35.5724 0.428291C35.6702 0.294757 35.7896 0.177262 35.9261 0.0803046C36.0446 0.0312148 36.1717 0.00397731 36.3006 0C36.469 0.0303995 36.6266 0.101809 36.7583 0.207454C36.8346 0.321219 37.0149 0.341295 37.1606 0.401523L37.3062 0.468444C37.4538 0.853977 37.5471 1.25686 37.5836 1.66632C37.5836 1.66632 37.5073 1.99423 37.4311 2.33553C37.3548 2.67682 37.2369 3.00473 37.2369 3.09173C37.2369 3.17873 37.1328 3.21219 37.0704 3.26572C37.008 3.31926 36.7791 4.30968 36.7583 4.34314C36.6335 4.52383 36.6266 4.75136 36.3283 4.85174C36.2659 4.85174 36.259 4.91866 36.2451 4.95881C36.0875 5.29447 35.8896 5.61116 35.6556 5.90239C35.5604 6.0672 35.4747 6.23699 35.399 6.41099C35.399 6.44445 35.3366 6.45783 35.3089 6.4846C35.2811 6.51137 35.2256 6.53814 35.2118 6.57829C34.9778 6.96703 34.7738 7.37188 34.6015 7.78955C34.6015 7.89662 34.1021 8.21784 34.0744 8.34499C34.0466 8.47214 33.6097 8.45876 33.6374 8.5056Z" fill="white"/>
<path d="M26.5571 25.9787L25.0591 27.4242C24.8788 27.6049 24.7262 27.8123 24.5459 27.9863C23.9009 28.6154 23.242 29.2377 22.6179 29.8801C22.3405 30.1679 22.0839 30.4757 21.8342 30.7836C21.5352 31.2308 21.1343 31.6062 20.6621 31.8811C20.4749 31.9748 20.4124 31.7673 20.3639 31.513C20.2641 31.2517 20.2641 30.9646 20.3639 30.7033C20.6189 30.268 20.9236 29.8617 21.2724 29.492C21.6263 29.0965 22.0013 28.719 22.3959 28.3611C22.8369 27.901 23.2491 27.4161 23.6304 26.9089C24.0882 26.3735 24.5598 25.8515 25.0175 25.3362L25.926 24.3994C26.3837 23.9242 26.8623 23.4625 27.3131 22.974C27.6529 22.5925 27.9303 22.1642 28.2909 21.756C28.3742 21.669 28.4435 21.5686 28.5267 21.4883C28.6522 21.3742 28.8209 21.3152 28.993 21.3253C29.1651 21.3355 29.3252 21.4138 29.4353 21.5419L29.6017 21.7025C29.6753 21.802 29.7142 21.9215 29.7127 22.0438C29.7242 22.1892 29.7029 22.3353 29.6503 22.472C29.5789 22.672 29.4709 22.8579 29.3312 23.0208C29.1995 23.1747 29.0677 23.3621 28.9221 23.5227C28.6377 23.8439 28.3256 24.1919 28.0066 24.5131L26.571 26.0055L26.5571 25.9787Z" fill="white"/>
</svg>
